# xmcd
#
# Track frame offsets:
#	150
#	14487
#	26916
#	42167
#	53610
#	67942
#	81829
#	92910
#	108151
#
# Disc length: 1639 seconds
#
# Revision: 1
# Processed by: cddbd v1.5.2PL0 Copyright (c) Steve Scherf et al.
# Submitted via: audiograbber 1.83.01
#
DISCID=6a066509
DTITLE=Hillcrest - Hillcrest 49
DYEAR=1999
DGENRE=Country
TTITLE0=Begind - Begind
TTITLE1=Where Do I Stand - Pamelody
TTITLE2=Mcfaddens The Wild Irisman - Cindy Thompson
TTITLE3=The Way That It Is - Brian Dolph
TTITLE4=Banks Of The River - Leo Mcclanthy
TTITLE5=Diamond In A Rough - Babs Winn
TTITLE6=Only A Phone Call Away - Larry Ford
TTITLE7=After The Fact - Peggy Rains
TTITLE8=90 Mile An Haur Womman - Didi Perry
EXTD=
EXTT0=
EXTT1=
EXTT2=
EXTT3=
EXTT4=
EXTT5=
EXTT6=
EXTT7=
EXTT8=
PLAYORDER=
